<svg width="225" height="225" viewBox="0 0 225 225" fill="none" xmlns="http://www.w3.org/2000/svg">
<circle cx="112.5" cy="112.5" r="110.5" fill="white" fill-opacity="0.9" stroke="black" stroke-width="4"/>
<rect x="19.0723" y="107.98" width="178.03" height="4" transform="rotate(-15 19.0723 107.98)" fill="black"/>
<rect x="32.791" y="159.175" width="178.03" height="4" transform="rotate(-15 32.791 159.175)" fill="black"/>
<path d="M39.8058 144.305C38.6158 144.624 37.4455 144.846 36.2949 144.973C35.1656 145.093 34.2239 145.106 33.4699 145.012L32.5389 141.538C33.4375 141.661 34.3906 141.691 35.3981 141.626C36.4212 141.534 37.3258 141.382 38.1121 141.172C39.4934 140.802 40.4637 140.428 41.023 140.05C41.6035 139.667 41.8056 139.146 41.6291 138.487C41.4924 137.977 41.2171 137.629 40.803 137.444C40.4103 137.253 39.8454 137.143 39.1084 137.113C38.3658 137.061 37.4148 136.997 36.2555 136.92C34.5562 136.784 33.1691 136.495 32.0944 136.054C31.0353 135.586 30.3235 134.672 29.959 133.312C29.5491 131.782 29.8138 130.39 30.7533 129.136C31.6871 127.861 33.3547 126.902 35.7559 126.258C36.7547 125.991 37.7734 125.797 38.812 125.679C39.8507 125.56 40.7172 125.521 41.4116 125.563L42.3341 129.005C41.5531 128.896 40.6886 128.9 39.7407 129.017C38.8083 129.107 37.9809 129.249 37.2584 129.443C36.2596 129.711 35.4197 130.061 34.7385 130.494C34.073 130.9 33.8313 131.443 34.0135 132.123C34.1274 132.548 34.3991 132.84 34.8287 132.998C35.2795 133.15 35.8734 133.242 36.6104 133.272C37.3686 133.297 38.2714 133.351 39.3187 133.435C40.6169 133.52 41.6871 133.688 42.5292 133.941C43.3925 134.188 44.069 134.588 44.5585 135.14C45.0694 135.686 45.4529 136.437 45.7091 137.394C46.159 139.072 45.8468 140.5 44.7726 141.676C43.7139 142.825 42.0583 143.702 39.8058 144.305ZM49.9502 141.245L45.338 124.032L49.6412 122.879L51.042 128.107L55.3133 126.963C56.4183 126.666 57.1101 126.231 57.3885 125.655C57.6826 125.052 57.6986 124.262 57.4367 123.285L56.8132 120.958L61.1164 119.805L61.6972 121.972C61.9819 123.035 62.0547 124.029 61.9155 124.954C61.7918 125.853 61.3109 126.608 60.4727 127.22C61.4563 127.321 62.2043 127.69 62.7167 128.327C63.2446 128.937 63.6338 129.71 63.8843 130.645L65.6011 137.052L61.2979 138.205L59.7092 132.276C59.4189 131.192 59.0042 130.495 58.4653 130.183C57.9477 129.867 57.147 129.853 56.0632 130.144L51.8875 131.263L54.2534 140.092L49.9502 141.245ZM52.1761 119.672L50.8181 114.604L54.3244 113.664L54.8966 115.8L62.8336 113.673L63.46 116.649L52.1761 119.672ZM74.9416 134.89C73.8578 135.181 72.8135 135.278 71.8086 135.183C70.7981 135.067 69.9112 134.69 69.148 134.051C68.4004 133.386 67.8501 132.395 67.497 131.077C67.0358 129.356 67.2672 127.882 68.1911 126.655C69.1093 125.407 70.6628 124.49 72.8516 123.903L77.7286 122.596L77.5065 121.767C77.2218 120.705 76.725 120.041 76.0161 119.775C75.3015 119.489 74.1899 119.547 72.6811 119.952C71.6398 120.231 70.6716 120.57 69.7764 120.969C68.8968 121.341 68.04 121.799 67.206 122.341L66.3433 119.122C67.1406 118.612 68.0873 118.108 69.1836 117.609C70.2799 117.11 71.3805 116.713 72.4855 116.417C73.0593 116.263 73.6097 116.15 74.1368 116.077C74.6582 115.983 75.1563 115.929 75.631 115.915L81.6236 114.31L82.2802 117.653L80.3358 118.174C80.699 118.509 81.0155 118.925 81.2854 119.423C81.5552 119.92 81.7699 120.466 81.9293 121.061L84.8332 131.898L80.53 133.051L78.5741 125.752L73.9522 126.99C73.0384 127.235 72.3586 127.588 71.9128 128.049C71.4669 128.51 71.355 129.155 71.5771 129.984C71.7878 130.77 72.1667 131.25 72.714 131.422C73.2612 131.594 74.0873 131.532 75.1923 131.236C75.5961 131.128 75.9835 131.001 76.3546 130.856C76.747 130.706 77.0699 130.551 77.3234 130.392L78.169 133.547C77.7994 133.783 77.3285 134.023 76.7562 134.268C76.2052 134.506 75.6004 134.714 74.9416 134.89ZM89.2343 130.719L84.6222 113.506L88.9254 112.353L90.3261 117.581L94.5974 116.436C95.7024 116.14 96.3942 115.704 96.6727 115.129C96.9667 114.526 96.9828 113.736 96.7208 112.758L96.0974 110.432L100.401 109.279L100.981 111.446C101.266 112.509 101.339 113.503 101.2 114.428C101.076 115.327 100.595 116.082 99.7568 116.694C100.74 116.795 101.488 117.164 102.001 117.801C102.529 118.411 102.918 119.183 103.168 120.118L104.885 126.525L100.582 127.679L98.9934 121.75C98.703 120.666 98.2883 119.968 97.7494 119.657C97.2318 119.341 96.4311 119.327 95.3473 119.618L91.1716 120.737L93.5375 129.566L89.2343 130.719ZM118.72 123.16C117.53 123.479 116.409 123.586 115.356 123.481C114.302 123.376 113.311 123.118 112.381 122.706L112.642 124.447L108.69 125.506L104.077 108.293L108.381 107.14L111.703 119.54C112.307 119.925 113.037 120.184 113.894 120.319C114.771 120.449 115.603 120.408 116.389 120.197C117.409 119.924 118.109 119.475 118.488 118.849C118.882 118.197 118.923 117.286 118.61 116.118L115.68 105.184L119.983 104.031L122.981 115.22C123.516 117.217 123.404 118.921 122.643 120.332C121.877 121.722 120.569 122.665 118.72 123.16ZM135.046 118.786C133.664 119.156 132.352 119.189 131.109 118.884C129.866 118.579 128.757 117.885 127.784 116.803C126.826 115.693 126.08 114.139 125.544 112.141C124.759 109.209 124.904 106.733 125.98 104.714C127.071 102.667 129.094 101.249 132.048 100.457C134.109 99.9047 135.871 99.8084 137.334 100.168C138.791 100.506 139.952 101.141 140.816 102.071C141.702 102.995 142.307 104.063 142.631 105.274L145.415 115.665L141.112 116.818L138.405 106.714C138.188 105.906 137.873 105.239 137.459 104.713C137.038 104.165 136.453 103.809 135.704 103.645C134.969 103.455 134.028 103.514 132.881 103.821C129.651 104.687 128.565 107.096 129.624 111.048C130.143 112.982 130.847 114.251 131.738 114.855C132.623 115.438 133.681 115.564 134.914 115.234C135.318 115.126 135.705 114.999 136.076 114.854C136.469 114.703 136.792 114.548 137.045 114.389L137.891 117.545C137.548 117.796 137.151 118.016 136.701 118.205C136.256 118.416 135.704 118.609 135.046 118.786ZM155.775 113.231C154.351 113.613 152.989 113.841 151.688 113.916C150.382 113.97 149.255 113.931 148.308 113.797L145.882 104.744L153.182 102.789L154.219 105.893L150.808 106.807L151.739 110.281C152.177 110.301 152.684 110.279 153.259 110.216C153.85 110.126 154.4 110.012 154.91 109.876C156.653 109.409 157.763 108.667 158.243 107.65C158.722 106.634 158.691 105.116 158.15 103.097C157.763 101.652 157.27 100.577 156.671 99.8721C156.088 99.1402 155.325 98.7181 154.384 98.6058C153.464 98.4879 152.282 98.6225 150.837 99.0097C149.902 99.2603 148.944 99.5966 147.964 100.019C147 100.414 146.09 100.885 145.234 101.433L144.372 98.2139C145.243 97.6389 146.271 97.1013 147.458 96.6011C148.645 96.1008 149.823 95.6941 150.992 95.3809C154.095 94.5496 156.544 94.7245 158.341 95.9057C160.154 97.0599 161.45 99.0927 162.23 102.004C162.993 104.852 162.878 107.228 161.886 109.134C160.914 111.034 158.878 112.4 155.775 113.231ZM173.611 108.111L170.775 97.5279C170.468 96.3803 170.008 95.5582 169.397 95.0616C168.78 94.5436 167.802 94.464 166.463 94.8227C165.762 95.0106 165.041 95.2949 164.3 95.6756C163.554 96.035 162.904 96.4142 162.35 96.8131L161.504 93.6574C162.062 93.1891 162.783 92.734 163.667 92.2922C164.551 91.8504 165.46 91.5043 166.395 91.2537C168.817 90.6046 170.699 90.6583 172.041 91.4149C173.377 92.1502 174.335 93.6017 174.916 95.7692L177.914 106.958L173.611 108.111ZM189.198 104.276C187.689 104.68 186.262 104.88 184.917 104.876C183.572 104.872 182.42 104.566 181.46 103.958C180.494 103.328 179.826 102.323 179.456 100.941C179.256 100.198 179.238 99.4509 179.402 98.701C179.581 97.9242 179.988 97.2343 180.624 96.6312C179.934 96.5201 179.307 96.2211 178.744 95.7343C178.202 95.2418 177.817 94.5705 177.589 93.7205C177.139 92.0417 177.332 90.635 178.167 89.5003C178.996 88.3443 180.249 87.5414 181.928 87.0916C182.587 86.9151 183.162 86.8067 183.652 86.7664C184.136 86.7049 184.59 86.6973 185.012 86.7435L185.858 89.8992C185.196 89.8943 184.44 90.0058 183.59 90.2335C182.804 90.4442 182.246 90.7418 181.916 91.1262C181.581 91.4894 181.498 91.9898 181.669 92.6273C181.857 93.3285 182.211 93.7575 182.731 93.9142C183.246 94.0496 183.95 93.9978 184.842 93.7586L186.627 93.2803L187.632 96.3933L185.656 96.9228C183.85 97.4068 183.143 98.382 183.536 99.8482C183.729 100.571 184.196 101.038 184.936 101.25C185.692 101.434 186.749 101.344 188.109 100.98C189.491 100.61 190.434 100.05 190.939 99.2994C191.444 98.5492 191.551 97.6321 191.261 96.5484L188.357 85.7107L192.66 84.5576L195.462 95.0128C196.128 97.4991 195.9 99.4961 194.778 101.004C193.671 102.485 191.811 103.575 189.198 104.276ZM195.781 110.814L194.79 107.116L192.878 107.628L192.302 104.844L197.689 103.401L199.415 109.84L195.781 110.814Z" fill="black"/>
</svg>
