<svg width="225" height="225" viewBox="0 0 225 225" fill="none" xmlns="http://www.w3.org/2000/svg">
<circle cx="112.5" cy="112.5" r="110.5" fill="white" fill-opacity="0.9" stroke="black" stroke-width="4"/>
<rect x="28" y="105.861" width="161.335" height="4" transform="rotate(-15 28 105.861)" fill="black"/>
<rect x="41.7168" y="157.055" width="161.335" height="4" transform="rotate(-15 41.7168 157.055)" fill="black"/>
<path d="M51.8366 141.227C50.6466 141.546 49.4763 141.768 48.3258 141.894C47.1964 142.015 46.2548 142.028 45.5007 141.934L44.5698 138.459C45.4684 138.583 46.4214 138.612 47.429 138.547C48.452 138.455 49.3567 138.304 50.143 138.093C51.5242 137.723 52.4945 137.349 53.0538 136.972C53.6344 136.589 53.8364 136.067 53.6599 135.409C53.5233 134.899 53.2479 134.551 52.8339 134.366C52.4411 134.175 51.8763 134.065 51.1393 134.034C50.3967 133.983 49.4457 133.919 48.2864 133.842C46.587 133.705 45.2 133.416 44.1253 132.976C43.0661 132.508 42.3543 131.594 41.9899 130.234C41.5799 128.704 41.8447 127.312 42.7842 126.058C43.718 124.783 45.3855 123.824 47.7868 123.18C48.7856 122.912 49.8043 122.719 50.8429 122.6C51.8815 122.482 52.7481 122.443 53.4425 122.485L54.3649 125.927C53.584 125.818 52.7195 125.821 51.7716 125.939C50.8392 126.029 50.0118 126.171 49.2893 126.365C48.2905 126.632 47.4505 126.983 46.7694 127.416C46.1038 127.822 45.8622 128.365 46.0444 129.045C46.1582 129.47 46.43 129.762 46.8596 129.92C47.3104 130.072 47.9043 130.164 48.6412 130.194C49.3994 130.219 50.3022 130.273 51.3496 130.357C52.6478 130.441 53.718 130.61 54.56 130.863C55.4234 131.11 56.0998 131.509 56.5894 132.061C57.1002 132.608 57.4838 133.359 57.74 134.315C58.1898 135.994 57.8776 137.422 56.8034 138.598C55.7448 139.747 54.0892 140.623 51.8366 141.227ZM44.7517 121.807L43.3936 116.739L46.8999 115.799L47.4722 117.935L55.4092 115.808L56.0356 118.783L44.7517 121.807ZM70.2585 136.291C67.7297 136.968 65.5727 136.909 63.7876 136.111C61.9967 135.293 60.7768 133.673 60.1276 131.25L57.3689 120.954L61.6721 119.801L64.4479 130.161C65.1312 132.711 66.7691 133.638 69.3617 132.944C71.9542 132.249 72.9088 130.627 72.2256 128.077L69.4497 117.717L73.7529 116.564L76.5117 126.86C77.1608 129.282 76.9145 131.296 75.7728 132.9C74.6254 134.483 72.7873 135.613 70.2585 136.291ZM87.6884 131.62C86.6047 131.911 85.5603 132.008 84.5555 131.913C83.5449 131.797 82.658 131.42 81.8948 130.781C81.1472 130.116 80.5969 129.125 80.2438 127.807C79.7826 126.086 80.014 124.612 80.9379 123.385C81.8561 122.137 83.4097 121.219 85.5984 120.633L90.4754 119.326L90.2533 118.497C89.9686 117.435 89.4718 116.771 88.763 116.505C88.0484 116.218 86.9367 116.277 85.4279 116.681C84.3866 116.96 83.4184 117.3 82.5233 117.699C81.6437 118.071 80.7868 118.529 79.9528 119.071L79.0902 115.851C79.8874 115.342 80.8342 114.838 81.9304 114.339C83.0267 113.84 84.1273 113.443 85.2324 113.147C85.8061 112.993 86.3566 112.88 86.8836 112.807C87.405 112.712 87.9031 112.659 88.3778 112.645L94.3704 111.04L95.027 114.383L93.0826 114.904C93.4458 115.239 93.7623 115.655 94.0322 116.152C94.302 116.65 94.5167 117.196 94.6761 117.791L97.5801 128.628L93.2769 129.781L91.321 122.482L86.699 123.72C85.7852 123.965 85.1054 124.318 84.6596 124.779C84.2137 125.24 84.1019 125.885 84.3239 126.714C84.5346 127.5 84.9135 127.98 85.4608 128.152C86.008 128.324 86.8341 128.262 87.9391 127.966C88.3429 127.858 88.7303 127.731 89.1015 127.586C89.4938 127.436 89.8167 127.281 90.0702 127.122L90.9158 130.277C90.5462 130.513 90.0753 130.753 89.503 130.998C88.9521 131.236 88.3472 131.444 87.6884 131.62ZM78.3916 112.793L77.8289 109.801L91.5354 106.128L92.3212 109.061L78.3916 112.793ZM101.981 127.449L97.369 110.236L101.322 109.177L101.965 110.815C102.565 109.994 103.316 109.269 104.218 108.64C105.141 108.006 106.198 107.529 107.388 107.21C109.194 106.726 110.756 106.9 112.072 107.732C113.409 108.558 114.337 109.937 114.855 111.871L117.887 123.187L113.584 124.34L110.62 113.279C110.324 112.174 109.845 111.449 109.183 111.102C108.542 110.75 107.711 110.711 106.691 110.984C105.905 111.195 105.164 111.575 104.469 112.126C103.795 112.671 103.293 113.261 102.962 113.896L106.284 126.296L101.981 127.449ZM128.688 120.635C127.243 121.022 125.849 121.259 124.505 121.345C123.178 121.405 122.04 121.368 121.093 121.235L119.377 114.828L123.329 113.769L124.38 117.689C124.802 117.736 125.301 117.727 125.876 117.664C126.452 117.601 127.005 117.498 127.536 117.356C128.662 117.054 129.48 116.664 129.99 116.186C130.515 115.681 130.661 114.993 130.427 114.121C130.262 113.505 129.914 113.097 129.382 112.898C128.866 112.672 128.186 112.558 127.343 112.556C126.5 112.555 125.502 112.571 124.35 112.607C123.283 112.619 122.282 112.58 121.347 112.489C120.432 112.392 119.646 112.136 118.988 111.72C118.346 111.278 117.893 110.567 117.632 109.59C117.222 108.06 117.554 106.707 118.628 105.531C119.723 104.349 121.525 103.422 124.032 102.75C125.286 102.414 126.51 102.177 127.703 102.04C128.89 101.881 129.82 101.826 130.494 101.873L131.416 105.316C130.635 105.206 129.704 105.216 128.623 105.347C127.542 105.477 126.502 105.676 125.503 105.943C124.865 106.114 124.226 106.32 123.584 106.56C122.964 106.795 122.467 107.064 122.093 107.37C121.713 107.653 121.575 107.987 121.677 108.369C121.797 108.815 122.122 109.093 122.652 109.201C123.203 109.304 123.906 109.332 124.759 109.286C125.606 109.218 126.534 109.197 127.543 109.223C128.749 109.219 129.807 109.3 130.717 109.466C131.627 109.632 132.394 109.985 133.016 110.524C133.639 111.063 134.104 111.906 134.412 113.054C134.902 114.881 134.629 116.458 133.595 117.782C132.576 119.08 130.94 120.031 128.688 120.635ZM115.87 102.751L115.308 99.7584L129.014 96.0857L129.8 99.0183L115.87 102.751ZM122.793 95.6895L121.537 91.0038L130.526 88.5952L131.101 91.3792L125.459 92.891L125.98 94.8354L122.793 95.6895ZM150.854 114.354C149.473 114.724 148.419 114.699 147.691 114.279C146.985 113.853 146.467 113.024 146.136 111.791L142.481 98.1485L146.784 96.9955L150.141 109.523C150.38 110.415 150.935 110.745 151.806 110.511L152.89 110.221L153.787 113.568L150.854 114.354ZM142.694 116.54C141.313 116.91 140.259 116.885 139.531 116.465C138.825 116.039 138.307 115.21 137.976 113.978L134.321 100.335L138.624 99.182L141.981 111.709C142.22 112.602 142.775 112.931 143.646 112.698L144.73 112.407L145.627 115.754L142.694 116.54ZM162.272 111.636C161.188 111.926 160.144 112.024 159.139 111.929C158.129 111.812 157.242 111.435 156.479 110.797C155.731 110.131 155.181 109.14 154.828 107.823C154.366 106.101 154.598 104.627 155.522 103.4C156.44 102.152 157.993 101.235 160.182 100.648L165.059 99.3415L164.837 98.5127C164.552 97.4502 164.056 96.7862 163.347 96.5206C162.632 96.2338 161.52 96.2925 160.012 96.6968C158.97 96.9758 158.002 97.3149 157.107 97.7142C156.227 98.0865 155.371 98.5439 154.537 99.0862L153.674 95.8668C154.471 95.3571 155.418 94.8529 156.514 94.3541C157.611 93.8554 158.711 93.458 159.816 93.1619C162.387 92.4729 164.445 92.5024 165.989 93.2502C167.555 93.9923 168.645 95.5109 169.26 97.8059L172.164 108.644L167.861 109.797L165.905 102.497L161.283 103.736C160.369 103.98 159.689 104.333 159.243 104.795C158.798 105.256 158.686 105.901 158.908 106.729C159.118 107.516 159.497 107.995 160.045 108.167C160.592 108.339 161.418 108.277 162.523 107.981C162.927 107.873 163.314 107.747 163.685 107.602C164.078 107.451 164.401 107.296 164.654 107.137L165.5 110.293C165.13 110.528 164.659 110.768 164.087 111.013C163.536 111.252 162.931 111.459 162.272 111.636ZM159 91.1942L158.24 88.3572L155.753 89.0234L154.968 86.0909L160.355 84.6474L161.115 87.4844L167.936 85.6566L168.563 88.6318L159 91.1942ZM180.363 106.788C178.302 107.341 176.383 107.49 174.607 107.237L173.727 103.954C174.46 104.054 175.235 104.097 176.051 104.083C176.861 104.048 177.66 103.925 178.446 103.715C180.444 103.18 181.756 102.384 182.384 101.327C183.033 100.265 183.082 98.7031 182.53 96.6418C181.977 94.5806 181.154 93.2523 180.061 92.6569C178.989 92.0559 177.454 92.0231 175.457 92.5583C174.67 92.769 173.918 93.0618 173.198 93.4368C172.479 93.8118 171.829 94.2363 171.25 94.7103L170.371 91.4271C171.782 90.3201 173.519 89.4904 175.58 88.938C178.491 88.158 180.864 88.3422 182.697 89.4907C184.525 90.618 185.83 92.6373 186.61 95.5486C187.39 98.4599 187.273 100.871 186.259 102.783C185.24 104.673 183.274 106.008 180.363 106.788Z" fill="black"/>
</svg>
