<svg width="225" height="225" viewBox="0 0 225 225" fill="none" xmlns="http://www.w3.org/2000/svg">
<circle cx="112.5" cy="112.5" r="110.5" fill="white" fill-opacity="0.9" stroke="black" stroke-width="4"/>
<rect x="28" y="105.861" width="161.335" height="4" transform="rotate(-15 28 105.861)" fill="black"/>
<rect x="41.7168" y="157.055" width="161.335" height="4" transform="rotate(-15 41.7168 157.055)" fill="black"/>
<path d="M82.2398 133.08C80.731 133.485 79.3042 133.685 77.9593 133.681C76.6145 133.677 75.462 133.37 74.5018 132.762C73.536 132.133 72.868 131.127 72.4979 129.746C72.2986 129.002 72.2807 128.256 72.4442 127.506C72.6233 126.729 73.0306 126.039 73.6662 125.436C72.9759 125.325 72.3491 125.026 71.7859 124.539C71.244 124.046 70.8592 123.375 70.6314 122.525C70.1816 120.846 70.374 119.44 71.2088 118.305C72.0379 117.149 73.2918 116.346 74.9706 115.896C75.6293 115.72 76.2038 115.611 76.6941 115.571C77.1787 115.51 77.6322 115.502 78.0546 115.548L78.9001 118.704C78.2383 118.699 77.4824 118.81 76.6324 119.038C75.8461 119.249 75.2881 119.546 74.9584 119.931C74.623 120.294 74.5406 120.794 74.7115 121.432C74.8994 122.133 75.2535 122.562 75.7737 122.719C76.2883 122.854 76.9919 122.802 77.8844 122.563L79.6694 122.085L80.6744 125.198L78.6981 125.727C76.8918 126.211 76.1851 127.187 76.578 128.653C76.7716 129.375 77.2384 129.842 77.9784 130.054C78.7339 130.239 79.7917 130.149 81.1518 129.785C82.533 129.415 83.4762 128.854 83.9812 128.104C84.4862 127.354 84.5935 126.437 84.3032 125.353L81.3992 114.515L85.7024 113.362L88.5039 123.817C89.1701 126.304 88.9422 128.301 87.8202 129.809C86.7137 131.289 84.8536 132.38 82.2398 133.08ZM94.2806 129.512L92.8115 124.03C92.5496 123.052 92.4784 122.149 92.5978 121.32C92.7328 120.464 93.2493 119.756 94.1471 119.196L90.6651 119.207L89.5634 115.095C90.2353 114.118 91.2141 113.138 92.4997 112.156C93.8065 111.168 95.395 110.424 97.265 109.922C98.9863 109.461 100.512 109.291 101.843 109.413C103.195 109.529 104.33 110.022 105.246 110.893C106.184 111.758 106.892 113.083 107.37 114.868L110.155 125.259L105.851 126.412L103.041 115.925C102.683 114.586 102.111 113.726 101.325 113.344C100.555 112.936 99.4262 112.931 97.9387 113.329C96.9824 113.585 96.1375 113.96 95.4041 114.452C94.6918 114.939 94.1483 115.461 93.7734 116.017L93.893 116.463L97.6874 116.471L98.3877 119.085C97.5947 119.525 97.1148 120.03 96.9483 120.598C96.7973 121.14 96.8556 121.91 97.1233 122.909L98.5838 128.359L94.2806 129.512ZM117.807 123.209C116.426 123.579 115.371 123.554 114.644 123.134C113.938 122.708 113.419 121.879 113.089 120.646L109.433 107.004L113.737 105.851L117.093 118.378C117.332 119.27 117.888 119.6 118.759 119.366L119.843 119.076L120.74 122.423L117.807 123.209ZM129.292 120.473C128.208 120.763 127.164 120.861 126.159 120.766C125.148 120.649 124.261 120.272 123.498 119.634C122.75 118.969 122.2 117.977 121.847 116.66C121.386 114.938 121.617 113.464 122.541 112.237C123.459 110.989 125.013 110.072 127.202 109.485L132.079 108.179L131.857 107.35C131.572 106.287 131.075 105.623 130.366 105.358C129.652 105.071 128.54 105.13 127.031 105.534C125.99 105.813 125.022 106.152 124.126 106.551C123.247 106.924 122.39 107.381 121.556 107.923L120.693 104.704C121.491 104.194 122.437 103.69 123.534 103.191C124.63 102.693 125.731 102.295 126.836 101.999C129.407 101.31 131.465 101.339 133.009 102.087C134.574 102.829 135.664 104.348 136.279 106.643L139.183 117.481L134.88 118.634L132.924 111.334L128.302 112.573C127.388 112.818 126.709 113.171 126.263 113.632C125.817 114.093 125.705 114.738 125.927 115.566C126.138 116.353 126.517 116.832 127.064 117.004C127.611 117.176 128.437 117.115 129.542 116.818C129.946 116.71 130.334 116.584 130.705 116.439C131.097 116.288 131.42 116.133 131.673 115.974L132.519 119.13C132.149 119.365 131.678 119.606 131.106 119.85C130.555 120.089 129.95 120.296 129.292 120.473ZM119.995 101.646L119.432 98.6532L133.139 94.9806L133.924 97.9131L119.995 101.646ZM143.121 116.426L141.652 110.943C141.39 109.965 141.319 109.062 141.438 108.233C141.573 107.377 142.09 106.669 142.988 106.11L139.506 106.12L138.404 102.008C139.076 101.031 140.055 100.051 141.34 99.0691C142.647 98.0812 144.236 97.3367 146.106 96.8357C147.827 96.3744 149.353 96.2047 150.684 96.3264C152.036 96.4424 153.17 96.9356 154.087 97.8061C155.024 98.6708 155.732 99.9957 156.211 101.781L158.995 112.172L154.692 113.325L151.882 102.838C151.523 101.499 150.951 100.639 150.166 100.257C149.396 99.8488 148.267 99.8438 146.779 100.242C145.823 100.499 144.978 100.873 144.245 101.366C143.532 101.853 142.989 102.374 142.614 102.93L142.734 103.376L146.528 103.384L147.228 105.998C146.435 106.439 145.955 106.943 145.789 107.511C145.638 108.053 145.696 108.823 145.964 109.822L147.424 115.273L143.121 116.426Z" fill="black"/>
</svg>
