<svg width="23" height="22" viewBox="0 0 23 22" fill="none" xmlns="http://www.w3.org/2000/svg">
<path d="M11.5699 21.9683C17.7655 21.9683 22.7881 17.0573 22.7881 10.9993C22.7881 4.94126 17.7655 0.0302734 11.5699 0.0302734C5.37416 0.0302734 0.351562 4.94126 0.351562 10.9993C0.351562 17.0573 5.37416 21.9683 11.5699 21.9683Z" fill="white"/>
<path d="M11.5723 22C9.34723 22 7.17216 21.3549 5.32211 20.1462C3.47205 18.9375 2.03011 17.2195 1.17863 15.2095C0.327142 13.1995 0.104352 10.9878 0.538436 8.85401C0.972519 6.72022 2.04398 4.76021 3.61732 3.22183C5.19066 1.68345 7.19522 0.635804 9.3775 0.211367C11.5598 -0.213071 13.8218 0.00476617 15.8775 0.83733C17.9331 1.66989 19.6901 3.07979 20.9263 4.88873C22.1625 6.69767 22.8223 8.82441 22.8223 11C22.819 13.9164 21.6327 16.7125 19.5236 18.7747C17.4145 20.8369 14.555 21.9968 11.5723 22ZM11.5723 0.900003C9.52928 0.900003 7.53217 1.49236 5.83348 2.60216C4.1348 3.71196 2.81083 5.28937 2.02901 7.1349C1.2472 8.98043 1.04264 11.0112 1.44121 12.9704C1.83977 14.9296 2.82357 16.7293 4.26818 18.1418C5.71279 19.5543 7.55334 20.5162 9.55707 20.9059C11.5608 21.2956 13.6377 21.0956 15.5252 20.3312C17.4127 19.5667 19.0259 18.2722 20.161 16.6113C21.296 14.9503 21.9018 12.9976 21.9018 11C21.8996 8.32178 20.8107 5.75383 18.8741 3.85986C16.9375 1.96588 14.3114 0.900653 11.5723 0.898005V0.900003Z" fill="#A2ACB3"/>
<path d="M11.5696 19.3822C16.3046 19.3822 20.1431 15.629 20.1431 10.9992C20.1431 6.36941 16.3046 2.61621 11.5696 2.61621C6.83459 2.61621 2.99609 6.36941 2.99609 10.9992C2.99609 15.629 6.83459 19.3822 11.5696 19.3822Z" fill="#A2ACB3"/>
<path d="M7.94447 7.38222C7.94245 7.23283 7.9735 7.08478 8.03549 6.94822C8.09336 6.82034 8.17682 6.70508 8.28095 6.60923C8.38826 6.51293 8.51315 6.43727 8.64912 6.38623C8.79275 6.33107 8.94584 6.30323 9.10015 6.30422L12.8116 6.30922C13.345 6.30001 13.8764 6.37463 14.3856 6.53022C14.8049 6.65993 15.1893 6.87961 15.5106 7.17322C15.8151 7.462 16.0463 7.81645 16.1856 8.20822C16.3428 8.65662 16.4193 9.12828 16.4116 9.60223C16.4197 10.0687 16.3432 10.5329 16.1856 10.9732C16.0461 11.3548 15.8146 11.6978 15.5106 11.9732C15.1864 12.2559 14.8022 12.4649 14.3856 12.5852C13.875 12.7324 13.3438 12.7999 12.8116 12.7852H10.2548V15.8372C10.2568 15.9866 10.2257 16.1346 10.1638 16.2712C10.1058 16.3991 10.0224 16.5143 9.91834 16.6102C9.81103 16.7065 9.68612 16.7822 9.55015 16.8332C9.25969 16.9416 8.93857 16.9416 8.64811 16.8332C8.51211 16.7822 8.3872 16.7066 8.27992 16.6102C8.17579 16.5144 8.09233 16.3991 8.03446 16.2712C7.97247 16.1347 7.94143 15.9866 7.94345 15.8372L7.94447 7.38222ZM12.3494 10.9822C12.6139 10.9934 12.8785 10.964 13.1338 10.8952C13.3346 10.8415 13.5214 10.7468 13.682 10.6172C13.8232 10.4988 13.9328 10.3485 14.0011 10.1792C14.1406 9.80976 14.1406 9.40368 14.0011 9.03422C13.9324 8.86433 13.823 8.71308 13.682 8.59323C13.5218 8.4617 13.335 8.3649 13.1338 8.30922C12.8788 8.23828 12.6144 8.20459 12.3494 8.20922H10.2548V10.9832L12.3494 10.9822Z" fill="white"/>
</svg>
