<svg width="18" height="18" viewBox="0 0 18 18" fill="none" xmlns="http://www.w3.org/2000/svg">
<path d="M9 18C13.9706 18 18 13.9706 18 9C18 4.02944 13.9706 0 9 0C4.02944 0 0 4.02944 0 9C0 13.9706 4.02944 18 9 18Z" fill="url(#paint0_linear_588_4882)"/>
<path d="M8.99567 15.854C12.7827 15.854 15.8527 12.784 15.8527 8.99701C15.8527 5.21 12.7827 2.14001 8.99567 2.14001C5.20866 2.14001 2.13867 5.21 2.13867 8.99701C2.13867 12.784 5.20866 15.854 8.99567 15.854Z" fill="#F5B43E"/>
<path d="M13.1406 3.57901C14.553 4.65981 15.4903 6.24711 15.7545 8.00587C16.0187 9.76464 15.5893 11.5573 14.5568 13.0054C13.5243 14.4535 11.9695 15.4438 10.2207 15.7673C8.47185 16.0907 6.66574 15.722 5.18359 14.739C5.916 15.2699 6.74626 15.6507 7.62651 15.8592C8.50676 16.0677 9.41958 16.0999 10.3123 15.9539C11.2051 15.808 12.0601 15.4867 12.8281 15.0087C13.5961 14.5307 14.2619 13.9054 14.7871 13.1689C15.3122 12.4323 15.6864 11.5991 15.888 10.7172C16.0896 9.83537 16.1147 8.92233 15.9617 8.03075C15.8087 7.13917 15.4808 6.28669 14.9968 5.52246C14.5128 4.75823 13.8822 4.09738 13.1416 3.578L13.1406 3.57901Z" fill="#FADA59"/>
<path d="M2.79036 10.138C2.79054 9.04776 3.02488 7.97024 3.4775 6.97837C3.93013 5.98649 4.5905 5.10339 5.41394 4.38879C6.23737 3.6742 7.20468 3.14478 8.25041 2.83635C9.29615 2.52792 10.3959 2.44767 11.4754 2.60103C10.1242 2.07775 8.64199 1.99587 7.2414 2.36713C5.84081 2.7384 4.5938 3.54374 3.67926 4.66763C2.76471 5.79151 2.22964 7.17617 2.15079 8.62299C2.07194 10.0698 2.45337 11.5044 3.24036 12.721C2.94185 11.8926 2.78959 11.0186 2.79036 10.138Z" fill="#E2A639"/>
<path d="M6.60841 13.729C6.56249 13.6755 6.5277 13.6133 6.50607 13.5462C6.48444 13.479 6.47639 13.4083 6.4824 13.338V6.21601C6.47058 6.07134 6.51581 5.92778 6.60841 5.81601C6.66484 5.76704 6.73064 5.73008 6.80182 5.70739C6.873 5.6847 6.94806 5.67674 7.02241 5.68401H10.0224C12.0804 5.68401 13.1094 6.60501 13.1094 8.44701C13.1094 10.289 12.0804 11.2057 10.0224 11.197H8.46141V13.335C8.47326 13.4759 8.43028 13.616 8.34141 13.726C8.28328 13.7738 8.2162 13.8096 8.14409 13.8312C8.07198 13.8529 7.99627 13.8599 7.9214 13.852H7.02141C6.87298 13.8663 6.72483 13.8222 6.60841 13.729ZM9.8934 9.747C10.7261 9.747 11.1424 9.31368 11.1424 8.44701C11.1424 7.58035 10.7261 7.14701 9.8934 7.14701H8.47641V9.741L9.8934 9.747Z" fill="#E2A639"/>
<path d="M6.28227 13.334C6.23633 13.2807 6.20152 13.2187 6.17988 13.1517C6.15824 13.0847 6.15021 13.0141 6.15626 12.944V5.822C6.14451 5.74888 6.15046 5.67402 6.17362 5.60369C6.19679 5.53335 6.23649 5.4696 6.28939 5.41778C6.34229 5.36596 6.40684 5.32759 6.47764 5.30588C6.54844 5.28416 6.62341 5.27974 6.69627 5.293H9.69627C11.7543 5.293 12.7833 6.214 12.7833 8.056C12.7833 9.898 11.7543 10.8147 9.69627 10.806H8.13426V12.944C8.14606 13.0846 8.10307 13.2243 8.01426 13.334C7.95601 13.3816 7.88892 13.4173 7.81684 13.4389C7.74476 13.4605 7.66912 13.4677 7.59426 13.46H6.69427C6.54576 13.4733 6.39793 13.4281 6.28227 13.334ZM9.56725 9.352C10.3999 9.352 10.8163 8.91867 10.8163 8.052C10.8163 7.18533 10.3999 6.752 9.56725 6.752H8.14626V9.346L9.56725 9.352Z" fill="url(#paint1_linear_588_4882)"/>
<defs>
<linearGradient id="paint0_linear_588_4882" x1="0" y1="9" x2="18" y2="9" gradientUnits="userSpaceOnUse">
<stop offset="0.05" stop-color="#FADF8A"/>
<stop offset="0.27" stop-color="#F8D157"/>
<stop offset="1" stop-color="#F8D157"/>
</linearGradient>
<linearGradient id="paint1_linear_588_4882" x1="5.51364" y1="4.11614" x2="11.6905" y2="10.6342" gradientUnits="userSpaceOnUse">
<stop stop-color="#FFF2CB"/>
<stop offset="1" stop-color="#FFD85F"/>
</linearGradient>
</defs>
</svg>
